<mxfile host="app.diagrams.net" modified="2023-08-12T15:15:41.145Z" agent="Mozilla/5.0 (Linux; Android 10; K) AppleWebKit/537.36 (KHTML, like Gecko) Chrome/113.0.0.0 Mobile Safari/537.36" version="21.6.8" etag="fnTqMJlJ9SZU1817-j5g" type="github">
  <diagram name="Halaman-1" id="TEwLlvM9rablyZ9nDive">
    <mxGraphModel>
      <root>
        <mxCell id="0" />
        <mxCell id="1" parent="0" />
      </root>
    </mxGraphModel>
  </diagram>
</mxfile>
